<?xml version="1.0" standalone="no"?>
<!DOCTYPE svg PUBLIC "-//W3C//DTD SVG 20010904//EN"
 "http://www.w3.org/TR/2001/REC-SVG-20010904/DTD/svg10.dtd">
<svg version="1.0" xmlns="http://www.w3.org/2000/svg"
 width="260.000000pt" height="260.000000pt" viewBox="0 0 260.000000 260.000000"
 preserveAspectRatio="xMidYMid meet">
<metadata>
Created by potrace 1.11, written by Peter Selinger 2001-2013
</metadata>
<g transform="translate(0.000000,260.000000) scale(0.100000,-0.100000)"
fill="#000000" stroke="none">
<path d="M0 1300 l0 -1299 1300 0 1300 0 -2 1297 -3 1297 -1297 2 -1298 2 0
-1299z m1707 -306 c9 4 50 16 92 27 155 42 177 48 204 58 l27 11 0 305 c0 278
2 306 16 303 15 -3 16 -33 15 -305 l-2 -303 26 10 c14 5 25 7 25 4 0 -2 10 0
21 7 17 8 23 8 30 -2 12 -19 3 -27 -40 -34 -53 -9 -61 -21 -60 -91 3 -177 -1
-231 -16 -231 -13 0 -15 24 -15 149 0 138 -1 149 -17 144 -37 -11 -312 -86
-317 -86 -3 0 -7 -46 -8 -102 l-3 -103 -160 0 -160 0 -1 45 c-2 65 -3 72 -13
66 -27 -17 -385 -108 -431 -110 -125 -5 -258 47 -346 133 -63 62 -95 115 -125
205 -18 58 -21 83 -16 161 4 78 11 105 41 169 113 245 398 344 646 223 59 -29
175 -144 199 -198 68 -150 -101 -296 -239 -205 -51 33 -73 77 -74 143 0 84 62
151 149 161 l45 5 -39 29 c-57 42 -150 77 -212 80 l-54 3 -2 -437 -2 -438 36
0 c34 0 392 93 423 110 12 7 14 61 15 358 0 193 2 352 5 354 3 3 52 17 110 32
120 31 171 60 191 108 12 29 14 -12 17 -366 2 -363 4 -398 19 -392z"/>
</g>
</svg>
